<?xml version="1.0" encoding="utf-8"?>
<!-- Generator: Adobe Illustrator 24.1.2, SVG Export Plug-In . SVG Version: 6.00 Build 0)  -->
<svg version="1.2" baseProfile="tiny" id="Layer_1" xmlns="http://www.w3.org/2000/svg" xmlns:xlink="http://www.w3.org/1999/xlink"
	 x="0px" y="0px" viewBox="0 0 512 512" overflow="visible" xml:space="preserve">
<rect fill="#0070F3" width="512" height="512"/>
<path fill="#FFFFFF" d="M156.3,135.5l64-80.7h35.1V240h-39.6V116.5l-59.5,75.8L96.9,117V240H57.1V54.8h35.8L156.3,135.5z"/>
<path fill="#FFFFFF" d="M342.7,204.3h99.2V240H303V54.8h136.2v35.8h-96.5v37.1H418v35.6h-75.3V204.3z"/>
<path fill="#FFFFFF" d="M57,272.1h93.1c22.7,0,41.5,6,56.5,17.9c14.9,11.9,22.4,26.7,22.4,44.3c0,17.6-7.4,32.4-22.3,44.3
	c-14.9,11.9-33.7,17.9-56.5,17.9h-45.6v60.8H57V272.1z M148.5,307.9h-44.1v52.8h44.1c9.4,0,17.3-2.5,23.7-7.6
	c6.3-5.1,9.5-11.3,9.5-18.7c0-7.4-3.2-13.7-9.5-18.8C165.9,310.5,158,307.9,148.5,307.9z"/>
<path fill="#FFFFFF" d="M436.6,364.6c4.5-6.4,6.3-14.3,4.9-22.1c-1.5-8.1-6.2-15.1-13.1-19.4c1.9-8.3,0-17.1-5.1-23.9
	c-5.9-7.9-15.6-12.3-25.6-11.5c-4.9-9.9-14.9-16.3-26.1-16.3c-8.2,0-15.9,3.4-21.4,9.4c-5.5-6-13.2-9.4-21.4-9.4
	c-11.2,0-21.2,6.3-26.1,16.3c-0.8-0.1-1.5-0.1-2.3-0.1c-9.2,0-17.7,4.2-23.3,11.6c-5.1,6.8-6.9,15.6-5.1,23.9
	c-6.9,4.3-11.7,11.3-13.1,19.4c-1.4,7.7,0.4,15.7,4.9,22.1c-4.5,6.4-6.3,14.3-4.9,22.1c1.5,8.1,6.2,15.1,13.1,19.4
	c-1.9,8.3,0,17.1,5.1,23.9c5.9,7.9,15.6,12.3,25.6,11.5c4.9,9.9,14.9,16.3,26.1,16.3c8.2,0,15.9-3.4,21.4-9.4
	c5.5,6,13.2,9.4,21.4,9.4c11.2,0,21.2-6.3,26.1-16.3c0.8,0.1,1.5,0.1,2.3,0.1c9.2,0,17.7-4.2,23.3-11.6c5.1-6.8,6.9-15.6,5.1-23.9
	c6.9-4.3,11.7-11.3,13.1-19.4C442.9,379,441.1,371,436.6,364.6z M413.3,395.7l-3.1,7l1.8,3.3c2.6,4.7,2.2,10.5-1,14.8
	c-2.5,3.3-6.3,5.3-10.4,5.5c-0.4-4.5-1.8-8.8-4.1-12.6c2.8-4.5,4.2-9.7,4.2-15.1l0-2.1l-15.4,0v2.1c0,3.7-1.4,7.1-4,9.7
	c-2.6,2.6-6,4-9.7,4c-2.1,0-2.1,1.7-2.1,3.9l0,11.5h2.1c4.6,0,9-1.1,13-3.1c0.5,1.4,0.7,2.8,0.7,4.3c0,0.8-0.1,1.5-0.2,2.2l-0.1,0.4
	c-1.2,6.4-6.9,11.1-13.4,11.1c-7.6,0-13.7-6.1-13.7-13.7V351h13.7c7.3,0,13.3,5.7,13.7,13c0,0.2,0,0.5,0,0.7c0,3.7-1.4,7.1-4,9.7
	l-1.5,1.5l10.9,10.9l1.5-1.5c3.6-3.6,6.2-8,7.5-12.9H423c2.8,3.1,4.1,7.4,3.3,11.6c-0.9,5.1-4.6,9.2-9.6,10.7L413.3,395.7z
	 M384.6,304.8c-4-2-8.5-3.1-13-3.1h-2.1l0,15.4h2.1c3.7,0,7.1,1.4,9.7,4c2.6,2.6,4,6,4,9.7v2.1l15.4,0v-2.1c0-5.4-1.5-10.6-4.2-15.1
	c2.4-3.8,3.8-8.1,4.1-12.7c4.1,0.2,7.9,2.1,10.4,5.5c3.2,4.3,3.6,10.1,1,14.8l-1.8,3.3l3.1,7l3.5,1c5,1.5,8.7,5.6,9.6,10.7
	c0.8,4.2-0.5,8.5-3.3,11.6h-23.4c-1.3-4.8-3.9-9.3-7.5-12.9c-5.5-5.5-12.8-8.5-20.6-8.5h-13.7v-35.1c0-7.6,6.1-13.7,13.7-13.7
	c6.5,0,12.2,4.7,13.4,11.1l0.1,0.3c0.1,0.8,0.2,1.5,0.2,2.3C385.3,302,385.1,303.4,384.6,304.8z M315.8,424.5c4,2,8.5,3.1,13,3.1
	h2.1l0-15.4h-2.1c-3.7,0-7.1-1.4-9.7-4c-2.6-2.6-4-6-4-9.7v-2.1l-15.4,0v2.1c0,5.4,1.5,10.6,4.2,15.1c-2.4,3.8-3.8,8.1-4.1,12.7
	c-4.1-0.2-7.9-2.1-10.4-5.5c-3.2-4.3-3.6-10.1-1-14.8l1.8-3.3l-3.1-7l-3.4-1c-5-1.5-8.7-5.6-9.6-10.7c-0.8-4.2,0.5-8.5,3.3-11.6
	h23.4c1.3,4.8,3.9,9.3,7.5,12.9c5.5,5.5,12.8,8.5,20.6,8.5h13.7v35.1c0,7.6-6.1,13.7-13.7,13.7c-6.5,0-12.2-4.7-13.4-11.1l-0.1-0.3
	c-0.1-0.8-0.2-1.5-0.2-2.3C315.2,427.3,315.4,425.9,315.8,424.5z M315.2,365.4c0-0.2,0-0.5,0-0.7c0-3.7,1.4-7.1,4-9.7l1.5-1.5
	l-10.9-10.9l-1.5,1.5c-3.6,3.6-6.2,8-7.5,12.9h-23.4c-2.8-3.1-4.1-7.4-3.3-11.6c0.9-5.1,4.6-9.2,9.6-10.7l3.4-1l3.1-7l-1.8-3.3
	c-2.6-4.7-2.2-10.5,1-14.8c2.5-3.3,6.3-5.3,10.4-5.5c0.4,4.5,1.8,8.8,4.1,12.6c-2.8,4.5-4.2,9.7-4.2,15.1v2.1l15.4,0v-2.1
	c0-3.7,1.4-7.1,4-9.7c2.6-2.6,6-4,9.7-4c2.1,0,2.1-1.7,2.1-3.9l0-11.5h-2.1c-4.6,0-9,1.1-13,3.1c-0.5-1.4-0.7-2.8-0.7-4.3
	c0-0.7,0.1-1.5,0.2-2.2l0.1-0.4c1.2-6.4,6.9-11.1,13.4-11.1c7.6,0,13.7,6.1,13.7,13.7v77.8h-13.7
	C321.6,378.3,315.6,372.7,315.2,365.4z"/>
</svg>
